<svg xmlns="http://www.w3.org/2000/svg" height="48" width="48"><path d="m5.9 46.05 9.55-3.75q-1.75-4.1-2.6-7.625-.85-3.525-1.1-8.175L8.4 28.8q-1.2.9-1.85 2.1-.65 1.2-.65 2.6Zm11.75-4.95H30.4q1.85-4.4 2.65-8.375.8-3.975.8-7.825 0-6.2-2.7-11.975Q28.45 7.15 24 3.75q-4.45 3.4-7.15 9.175T14.15 24.9q0 3.75.8 7.725.8 3.975 2.7 8.475ZM24 25.3q-1.45 0-2.35-.9-.9-.9-.9-2.4 0-1.4.9-2.325.9-.925 2.35-.925 1.45 0 2.35.925.9.925.9 2.325 0 1.5-.9 2.4-.9.9-2.35.9Zm18.15 20.75V33.5q0-1.4-.675-2.6-.675-1.2-1.875-2.1l-3.3-2.3q-.3 4.65-1.15 8.175-.85 3.525-2.6 7.625Z"/></svg>