<svg xmlns="http://www.w3.org/2000/svg" height="48" width="48"><path d="m3.05 19.9 9.35 4q1.65-4.05 3.575-7.175Q17.9 13.6 20.9 10.2l-3.95-.7q-1.45-.25-2.775.125T11.85 11Zm11.7 4.8 9.05 9.1q4.35-1.9 7.825-4.125Q35.1 27.45 37.8 24.7q4.4-4.35 6.525-10.375T45.7 2.8q-5.5-.75-11.525 1.425T23.75 10.8q-2.7 2.7-4.9 6.075t-4.1 7.825Zm15.65-6.65q-.95-.95-.95-2.3 0-1.35.95-2.35 1-.9 2.35-.9t2.35.9q.95 1 .95 2.35t-.95 2.3q-1 1-2.35 1t-2.35-1Zm-1.8 27.4 8.85-8.8q1-.95 1.4-2.275.4-1.325.15-2.825l-.7-3.95q-3.5 3-6.6 4.925-3.1 1.925-7.15 3.575ZM6.7 32q2.05-2.05 5-2.025 2.95.025 5 2.025 2 2 2.05 4.975.05 2.975-2 5.025-1.75 1.7-5.2 2.7-3.45 1-9.15 1.55.6-5.7 1.6-9.125T6.7 32Z"/></svg>